<?xml version="1.0" encoding="utf-8"?>
<!-- Generator: Adobe Illustrator 15.0.0, SVG Export Plug-In . SVG Version: 6.00 Build 0)  -->
<!DOCTYPE svg PUBLIC "-//W3C//DTD SVG 1.1//EN" "http://www.w3.org/Graphics/SVG/1.1/DTD/svg11.dtd">
<svg version="1.1" id="Layer_1" xmlns="http://www.w3.org/2000/svg" xmlns:xlink="http://www.w3.org/1999/xlink" x="0px" y="0px"
	 width="50px" height="50px" viewBox="-22.5 -22.5 50 50" enable-background="new -22.5 -22.5 50 50" xml:space="preserve">
<path fill="#1BCEB8" d="M27.25,2.5c0,13.651-11.099,24.75-24.75,24.75S-22.25,16.151-22.25,2.5S-11.151-22.25,2.5-22.25
	S27.25-11.151,27.25,2.5z"/>
<path fill="#09ADB5" d="M2.5-22.25c13.651,0,24.75,11.099,24.75,24.75S16.151,27.25,2.5,27.25"/>
<path fill="#0DBFBA" d="M-14.984-14.979c9.663-9.668,25.315-9.668,34.964,0c9.678,9.658,9.678,25.311,0,34.959"/>
<g>
	<path fill="#EEFFFF" d="M12.961,3.303H-7.966c-0.633,0-1.199-0.165-1.199-0.803c0-0.638,0.556-0.802,1.199-0.802h20.927
		c0.628,0,1.188,0.164,1.188,0.802C14.149,3.138,13.599,3.303,12.961,3.303z"/>
	<path fill="#EEFFFF" d="M2.5,14.082c-0.633,0-0.802-0.483-0.802-1.198V-7.961c0-0.638,0.159-1.199,0.802-1.199
		c0.643,0,0.803,0.474,0.803,1.199v20.922C3.303,13.599,3.133,14.082,2.5,14.082z"/>
</g>
</svg>
