<?xml version="1.0" encoding="utf-8"?>
<!-- Generator: Adobe Illustrator 15.0.0, SVG Export Plug-In . SVG Version: 6.00 Build 0)  -->
<!DOCTYPE svg PUBLIC "-//W3C//DTD SVG 1.1//EN" "http://www.w3.org/Graphics/SVG/1.1/DTD/svg11.dtd">
<svg version="1.1" id="Layer_1" xmlns="http://www.w3.org/2000/svg" xmlns:xlink="http://www.w3.org/1999/xlink" x="0px" y="0px"
	 width="48px" height="48px" viewBox="0 0 48 48" enable-background="new 0 0 48 48" xml:space="preserve">
<g>
	<path fill="#FF0000" d="M44.306,1.797h-2.211l0,0H4.255c-0.383,0-0.694,0.313-0.694,0.694s0.312,0.703,0.694,0.703h1.604
		l2.15,17.875c0,0.035,0.01,0.087,0.019,0.122l2.619,21.821c0.243,1.822,1.795,3.191,3.634,3.191h19.999
		c1.831,0,3.392-1.369,3.636-3.191l2.618-21.839c0.009-0.035,0.019-0.069,0.019-0.112l2.149-17.875h1.604
		C44.688,3.185,45,2.872,45,2.481C45,2.109,44.688,1.797,44.306,1.797z M29.484,8.379l-0.121,3.054h-4.39V8.379H29.484z
		 M40.308,11.433h-3.78l0.261-3.054h3.885L40.308,11.433z M38.695,24.79h-3.279l0.261-3.062h3.392L38.695,24.79z M38.157,29.238
		h-3.104l0.251-3.061h3.234L38.157,29.238z M29.64,38.137l0.139-3.054h3.383l-0.242,3.054H29.64z M24.974,38.137v-3.054h3.401
		l-0.127,3.054H24.974z M20.313,38.137l-0.126-3.054h3.4v3.054H20.313z M8.96,17.278h3.551l0.261,3.062H9.323L8.96,17.278z
		 M13.916,17.278h4.137l0.126,3.062h-4.016L13.916,17.278z M23.587,26.178v3.061h-3.652l-0.121-3.061H23.587z M19.761,24.79
		l-0.133-3.062h3.959v3.062H19.761z M24.974,26.178h3.773l-0.121,3.061h-3.652V26.178z M24.974,24.79v-3.062h3.956l-0.121,3.062
		H24.974z M24.974,20.34v-3.062h4.146l-0.138,3.062H24.974z M23.587,20.34h-4.012l-0.135-3.062h4.146V20.34z M18.231,21.728
		l0.134,3.062h-3.829l-0.256-3.062H18.231z M18.417,26.178l0.127,3.061h-3.643l-0.248-3.061H18.417z M18.604,30.626l0.125,3.063
		h-3.457l-0.256-3.063H18.604z M19.999,30.626h3.588v3.063h-3.461L19.999,30.626z M24.974,30.626h3.587l-0.126,3.063h-3.461V30.626z
		 M29.952,30.626h3.59l-0.26,3.063h-3.451L29.952,30.626z M30.022,29.238l0.121-3.061h3.764l-0.26,3.061H30.022z M30.196,24.79
		l0.137-3.062h3.946l-0.251,3.062H30.196z M30.386,20.34l0.139-3.062h4.146l-0.26,3.062H30.386z M30.568,15.882l0.13-3.053h4.318
		l-0.242,3.053H30.568z M29.172,15.882h-4.198v-3.053h4.319L29.172,15.882z M23.587,15.882H19.39l-0.127-3.053h4.324V15.882z
		 M17.992,15.882H13.79l-0.247-3.053h4.323L17.992,15.882z M12.397,15.882H8.79l-0.373-3.053h3.721L12.397,15.882z M12.884,21.728
		l0.252,3.062H9.856l-0.363-3.062H12.884z M13.257,26.178l0.26,3.061h-3.117l-0.373-3.061H13.257z M13.63,30.626l0.252,3.063h-2.949
		l0,0l-0.373-3.063H13.63z M11.102,35.083h2.901l0.26,3.054h-2.797L11.102,35.083z M15.646,38.137l-0.246-3.054h3.399l0.126,3.054
		H15.646z M34.567,35.083h2.896l-0.365,3.054h-2.792L34.567,35.083z M37.637,33.688L37.637,33.688h-2.958l0.251-3.063h3.072
		L37.637,33.688z M35.79,20.34l0.251-3.062h3.557l-0.365,3.062H35.79z M39.771,15.882h-3.608l0.251-3.053h3.721L39.771,15.882z
		 M35.14,11.433h-4.389l0.146-3.054h4.51L35.14,11.433z M23.587,11.433h-4.385l-0.125-3.054h4.51V11.433z M17.68,8.379l0.126,3.054
		h-4.379l-0.258-3.054H17.68z M11.774,8.379l0.26,3.054H8.257L7.884,8.379H11.774z M36.527,42.839
		c-0.139,1.127-1.111,1.977-2.248,1.977H14.28c-1.136,0-2.104-0.85-2.246-1.977l-0.399-3.314h3.374l0,0l0,0h18.543l0,0l0,0h3.373
		L36.527,42.839z M40.837,6.983H7.724l-0.46-3.79h34.034L40.837,6.983z"/>
	<path fill="#FF0000" d="M35.001,40.367c-0.382-0.044-0.729,0.232-0.771,0.614l-0.254,2.221c-0.05,0.381,0.227,0.728,0.607,0.771
		c0.027,0.009,0.053,0.009,0.08,0.009c0.354,0,0.65-0.26,0.693-0.623l0.251-2.221C35.66,40.757,35.382,40.41,35.001,40.367z"/>
	<path fill="#FF0000" d="M38.938,6.15c0.034,0,0.069,0,0.087,0c0.347,0,0.659-0.268,0.694-0.615l0.086-0.737
		c0.044-0.382-0.226-0.729-0.606-0.772c-0.382-0.043-0.729,0.234-0.781,0.616L38.331,5.37C38.296,5.752,38.557,6.099,38.938,6.15z"
		/>
</g>
</svg>
