<?xml version="1.0" encoding="utf-8"?>
<!-- Generator: Adobe Illustrator 15.0.0, SVG Export Plug-In . SVG Version: 6.00 Build 0)  -->
<!DOCTYPE svg PUBLIC "-//W3C//DTD SVG 1.1//EN" "http://www.w3.org/Graphics/SVG/1.1/DTD/svg11.dtd">
<svg version="1.1" id="Layer_1" xmlns="http://www.w3.org/2000/svg" xmlns:xlink="http://www.w3.org/1999/xlink" x="0px" y="0px"
	 width="48px" height="48px" viewBox="0 0 48 48" enable-background="new 0 0 48 48" xml:space="preserve">
<path fill="#00ACEA" d="M44.838,4.244c1.603,1.603,1.603,4.203,0,5.805l-2.073,2.074L35.583,4.94l2.072-2.073
	c1.604-1.603,4.203-1.603,5.807,0L44.838,4.244z"/>
<path fill="#00EFD1" d="M42.765,12.122L23.98,30.907h-0.002l-7.181-7.182L35.583,4.94L42.765,12.122z"/>
<path fill="#FEDB41" d="M16.797,23.725l7.181,7.182l-0.067,0.067l-9.933,2.751l2.752-9.933L16.797,23.725z"/>
<g>
	<path fill="#083863" d="M43.583,29.897c-0.647,0-1.173,0.525-1.173,1.174v10.413c-0.003,1.941-1.577,3.517-3.52,3.519H5.981
		c-1.942-0.002-3.517-1.577-3.519-3.519V10.92c0.002-1.942,1.577-3.516,3.519-3.519h10.414c0.648,0,1.173-0.526,1.173-1.174
		c0-0.647-0.525-1.173-1.173-1.173H5.981C2.743,5.059,0.12,7.682,0.116,10.92v30.564c0.004,3.238,2.627,5.861,5.865,5.865h32.91
		c3.238-0.004,5.861-2.627,5.864-5.865V31.071C44.755,30.423,44.23,29.897,43.583,29.897z"/>
	<path fill="#083863" d="M44.291,2.037c-2.063-2.057-5.402-2.057-7.465,0L15.901,22.963c-0.143,0.143-0.247,0.321-0.302,0.516
		l-2.751,9.934c-0.113,0.406,0.002,0.844,0.3,1.142c0.299,0.299,0.735,0.414,1.143,0.301l9.933-2.752
		c0.196-0.053,0.375-0.158,0.518-0.301l0.066-0.066l20.857-20.859c2.063-2.061,2.063-5.401,0-7.463L44.291,2.037z M17.353,25.939
		l4.412,4.412l-6.103,1.69L17.353,25.939z M23.98,30.907L23.98,30.907l0.764,0.764L23.98,30.907z M23.98,29.248l-5.523-5.523
		L35.583,6.6l5.522,5.522L23.98,29.248z M44.009,9.219l-1.244,1.245L37.241,4.94l1.244-1.244c1.146-1.144,3.001-1.144,4.146,0
		l1.377,1.377C45.154,6.218,45.154,8.074,44.009,9.219z"/>
</g>
</svg>
