<?xml version="1.0" encoding="utf-8"?>
<!-- Generator: Adobe Illustrator 15.0.0, SVG Export Plug-In . SVG Version: 6.00 Build 0)  -->
<!DOCTYPE svg PUBLIC "-//W3C//DTD SVG 1.1//EN" "http://www.w3.org/Graphics/SVG/1.1/DTD/svg11.dtd">
<svg version="1.1" id="Layer_1" xmlns="http://www.w3.org/2000/svg" xmlns:xlink="http://www.w3.org/1999/xlink" x="0px" y="0px"
	 width="50px" height="50px" viewBox="-22.5 -15.5 50 50" enable-background="new -22.5 -15.5 50 50" xml:space="preserve">
<g>
	<path d="M-15.848-15.5h-3.326v35.357H-22.5v8.787h3.327V34.5h3.326v-5.855h3.327v-8.787h-3.327V-15.5z"/>
	<path d="M24.179,19.857V-15.5h-3.321v35.357h-3.331v8.787h3.331V34.5h3.321v-5.855H27.5v-8.787H24.179z"/>
	<path d="M10.873-15.5H7.552V6.175H4.221v8.798h3.331V34.5h3.321V14.973h3.332V6.175h-3.332V-15.5z"/>
	<path d="M-2.542-15.5h-3.327v5.232h-3.326v8.792h3.326V34.5h3.327V-1.475h3.326v-8.792h-3.326V-15.5z"/>
</g>
</svg>
