<?xml version="1.0" encoding="utf-8"?>
<!-- Generator: Adobe Illustrator 15.0.0, SVG Export Plug-In . SVG Version: 6.00 Build 0)  -->
<!DOCTYPE svg PUBLIC "-//W3C//DTD SVG 1.1//EN" "http://www.w3.org/Graphics/SVG/1.1/DTD/svg11.dtd">
<svg version="1.1" id="Layer_1" xmlns="http://www.w3.org/2000/svg" xmlns:xlink="http://www.w3.org/1999/xlink" x="0px" y="0px"
	 width="48px" height="48px" viewBox="0 0 48 48" enable-background="new 0 0 48 48" xml:space="preserve">
<path fill="#AFAFAF" d="M44,24c0,11.045-8.955,20-20,20S4,35.045,4,24S12.955,4,24,4S44,12.955,44,24z"/>
<path opacity="0.05" enable-background="new    " d="M32.172,16.172L22,26.344l-5.172-5.172c-0.781-0.781-2.047-0.781-2.828,0
	l-1.414,1.414c-0.781,0.781-0.781,2.047,0,2.828l8,8c0.781,0.781,2.047,0.781,2.828,0l13-13c0.781-0.781,0.781-2.047,0-2.828
	L35,16.172C34.219,15.391,32.953,15.391,32.172,16.172z"/>
<path opacity="0.07" enable-background="new    " d="M20.939,33.061l-8-8c-0.586-0.583-0.586-1.536,0-2.121l1.414-1.414
	c0.586-0.586,1.536-0.586,2.121,0L22,27.051l10.525-10.525c0.586-0.586,1.535-0.586,2.121,0l1.414,1.414
	c0.586,0.586,0.586,1.536,0,2.121l-13,13C22.475,33.646,21.525,33.646,20.939,33.061z"/>
<path fill="#B7B7B7" d="M21.293,32.707l-8-8c-0.391-0.391-0.391-1.024,0-1.414l1.414-1.414c0.391-0.391,1.024-0.391,1.414,0
	L22,27.758l10.879-10.879c0.391-0.391,1.023-0.391,1.414,0l1.414,1.414c0.391,0.391,0.391,1.024,0,1.414l-13,13
	C22.317,33.098,21.683,33.098,21.293,32.707z"/>
</svg>
